<svg fill="none" width="50" height="50" viewBox="0 0 50 50" xmlns="http://www.w3.org/2000/svg">
    <path fill-rule="evenodd" clip-rule="evenodd"
        d="M8.33342 4.16666H41.6668C43.9679 4.16666 45.8334 6.03214 45.8334 8.33333V41.6667C45.8334 43.9679 43.9679 45.8333 41.6668 45.8333H8.33342C6.03223 45.8333 4.16675 43.9679 4.16675 41.6667V8.33333C4.16675 6.03214 6.03223 4.16666 8.33342 4.16666ZM8.33341 8.33333V41.6667H41.6667V8.33333H8.33341ZM27.0834 18.75C26.0048 18.75 24.8652 19.0797 23.8587 19.692L22.9167 18.75H20.8334V33.3333H25.0001V25C25.0001 23.8005 26.2375 22.9167 27.0834 22.9167H29.1667C30.0127 22.9167 31.2501 23.8005 31.2501 25V33.3333H35.4167V25C35.4167 21.14 32.0708 18.75 29.1667 18.75H27.0834ZM16.6667 16.6667C17.8173 16.6667 18.7501 15.7339 18.7501 14.5833C18.7501 13.4327 17.8173 12.5 16.6667 12.5C15.5162 12.5 14.5834 13.4327 14.5834 14.5833C14.5834 15.7339 15.5162 16.6667 16.6667 16.6667ZM14.5834 18.75V33.3333H18.7501V18.75H14.5834Z"
        fill="white" />
</svg>